<svg width="40" height="38" viewBox="0 0 40 38" fill="none" xmlns="http://www.w3.org/2000/svg">
<path d="M23.8494 0.0078125C25.445 0.0078125 26.9214 0.852752 27.7294 2.22855L29.3586 5.00171H33.5C37.0898 5.00171 40 7.91185 40 11.5017V30.5018C40 34.0916 37.0898 37.0018 33.5 37.0018H6.5C2.91014 37.0018 0 34.0916 0 30.5018V11.5017C0 7.91185 2.91014 5.00171 6.5 5.00171H10.6608L12.41 2.15311C13.2285 0.820112 14.6805 0.0078125 16.2448 0.0078125H23.8494ZM23.8494 3.00781H16.2448C15.7978 3.00781 15.3784 3.20673 15.0959 3.54339L14.9665 3.72291L12.7783 7.28661C12.5054 7.73093 12.0214 8.00171 11.5 8.00171H6.5C4.567 8.00171 3 9.56871 3 11.5017V30.5018C3 32.4348 4.567 34.0018 6.5 34.0018H33.5C35.433 34.0018 37 32.4348 37 30.5018V11.5017C37 9.56871 35.433 8.00171 33.5 8.00171H28.5C27.9682 8.00171 27.476 7.72005 27.2066 7.26145L25.1428 3.74805C24.8734 3.28945 24.3812 3.00781 23.8494 3.00781ZM20 11.0017C24.9706 11.0017 29 15.0312 29 20.0018C29 24.9722 24.9706 29.0018 20 29.0018C15.0294 29.0018 11 24.9722 11 20.0018C11 15.0312 15.0294 11.0017 20 11.0017ZM20 14.0017C16.6862 14.0017 14 16.688 14 20.0018C14 23.3154 16.6862 26.0018 20 26.0018C23.3138 26.0018 26 23.3154 26 20.0018C26 16.688 23.3138 14.0017 20 14.0017Z" fill="#EEEEEE"/>
</svg>
